# xmcd
#
# Track frame offsets: 
#        150
#        10970
#        24178
#        41639
#        55332
#        69541
#        81168
#        93658
#        107256
#        126736
#        138258
#        148628
#        159362
#        170619
#        179975
#        191753
#
# Disc length: 2675 seconds
#
# Revision: 0
# Processed by: cddbd v1.5.2PL0 Copyright (c) Steve Scherf et al.
# Submitted via: ExactAudioCopy v0.99pb5
#
DISCID=e40a7110
DTITLE=Johnny Cash - Icons [CD2]
DYEAR=2010
DGENRE=Country
TTITLE0=In The Jailhouse Now
TTITLE1=Bad News
TTITLE2=The Blizzard
TTITLE3=Casey Jones
TTITLE4=Gone Girl
TTITLE5=Long-legged Guitar Pickin' Man
TTITLE6=Jackson
TTITLE7=If I Were A Carpenter
TTITLE8=To Beat The Devil
TTITLE9=A Thing Called Love
TTITLE10=Kate
TTITLE11=The Battle Of New Orleans
TTITLE12=Without Love
TTITLE13=I Got Stripes
TTITLE14=Ring Of Fire
TTITLE15=Rosanna's Going Wild
EXTD=
EXTT0=
EXTT1=
EXTT2=
EXTT3=
EXTT4=
EXTT5=
EXTT6=
EXTT7=
EXTT8=
EXTT9=
EXTT10=
EXTT11=
EXTT12=
EXTT13=
EXTT14=
EXTT15=
PLAYORDER=
